<svg width="20" height="20" viewBox="0 0 20 20" fill="none" xmlns="http://www.w3.org/2000/svg">
<g clip-path="url(#clip0_196_506)">
<path d="M5.76616 6.53753C5.76616 6.01871 5.37124 5.6001 4.8818 5.6001C4.39235 5.6001 3.99744 6.02094 3.99744 6.53753C3.99744 7.05634 4.39235 7.47496 4.8818 7.47496C5.37124 7.47496 5.76616 7.05634 5.76616 6.53753Z" fill="black"/>
<path d="M9.13969 6.53753C9.13969 6.01871 8.74478 5.6001 8.25533 5.6001C7.76589 5.6001 7.37097 6.02094 7.37097 6.53753C7.37097 7.05634 7.76589 7.47496 8.25533 7.47496C8.74268 7.47496 9.13969 7.05634 9.13969 6.53753Z" fill="black"/>
<path d="M12.5113 6.53753C12.5113 6.01871 12.1164 5.6001 11.6269 5.6001C11.1375 5.6001 10.7426 6.02094 10.7426 6.53753C10.7426 7.05634 11.1375 7.47496 11.6269 7.47496C12.1164 7.47496 12.5113 7.05634 12.5113 6.53753Z" fill="black"/>
<path d="M4.99948 15.2995C4.81672 15.2995 4.65077 15.1882 4.57305 15.0145C4.49533 14.8408 4.51843 14.6337 4.63397 14.4823C4.94486 14.0748 5.12761 13.6451 5.17803 13.1975C2.19725 12.6453 0 9.90648 0 6.65108C0 2.98375 2.81483 0 6.27455 0H10.2363C13.696 0 16.5088 2.98375 16.5088 6.65108C16.5088 10.3184 13.6939 13.3022 10.2342 13.3022H8.96334C7.63995 15.275 5.11081 15.2995 4.99948 15.2995C5.00158 15.2995 5.00158 15.2995 4.99948 15.2995ZM6.27455 1.002C3.33578 1.002 0.945279 3.53596 0.945279 6.65108C0.945279 9.55021 2.99338 11.9639 5.70738 12.2668C5.93635 12.2935 6.1149 12.4894 6.12961 12.7321C6.16112 13.2242 6.0834 13.7096 5.90274 14.1728C6.66107 13.9947 7.71558 13.5671 8.30795 12.5384C8.39408 12.3892 8.54742 12.2979 8.71127 12.2979H10.2363C13.1751 12.2979 15.5656 9.76397 15.5656 6.64885C15.5656 3.53373 13.173 1.002 10.2363 1.002H6.27455Z" fill="#3D3837"/>
<path d="M15.8219 20C15.7294 20 13.6498 19.98 12.5344 18.3634H11.5387C9.30574 18.3634 7.31855 16.8582 6.59804 14.6181C6.51401 14.3554 6.64635 14.0726 6.89213 13.9813C7.14 13.8922 7.40888 14.0325 7.4929 14.293C8.08318 16.1278 9.70906 17.3592 11.5387 17.3592H12.7865C12.9503 17.3592 13.1037 17.4505 13.1898 17.5997C13.6204 18.3478 14.3598 18.6952 14.9459 18.8555C14.8346 18.5126 14.7905 18.1586 14.8115 17.7978C14.8262 17.5551 15.0047 17.3592 15.2337 17.3325C17.412 17.0898 19.0526 15.1525 19.0526 12.8279C19.0526 10.8662 17.8721 9.13607 16.1159 8.52373C15.8681 8.43689 15.7336 8.1541 15.8156 7.89136C15.8975 7.62861 16.1643 7.4861 16.4121 7.57294C18.5569 8.3211 19.9979 10.4342 19.9979 12.8279C19.9979 15.5066 18.2103 17.7644 15.7735 18.2588C15.824 18.5772 15.9626 18.8867 16.1874 19.1784C16.3029 19.3276 16.326 19.5346 16.2462 19.7106C16.1706 19.8887 16.0046 20 15.8219 20Z" fill="#3D3837"/>
</g>
<defs>
<clipPath id="clip0_196_506">
<rect width="20" height="20" fill="white"/>
</clipPath>
</defs>
</svg>
