<?xml version="1.0" encoding="utf-8"?>
<!-- Generator: Adobe Illustrator 24.2.3, SVG Export Plug-In . SVG Version: 6.00 Build 0)  -->
<svg version="1.1" id="Layer_1" xmlns="http://www.w3.org/2000/svg" xmlns:xlink="http://www.w3.org/1999/xlink" x="0px" y="0px"
	 viewBox="0 0 30 30" style="enable-background:new 0 0 30 30;" xml:space="preserve">
<g>
	<g>
		<path d="M15,3.7l5.6,9.7l-1.6,0.9c-0.1,0.1-0.1,0.2,0,0.3l5.1,2.9h0.1c0.1,0,0.2-0.1,0.2-0.2v-5.9c0-0.1-0.1-0.2-0.2-0.2h-0.1
			l-1.6,0.9L16,0.9h-1.9l-3.6,6.2l1.9,1.1L15,3.7z"/>
		<path d="M10.2,9.8L10.2,9.8l-5.1,2.9C5,12.9,5,13,5.1,13.1L6.7,14L0,25.4l1,1.7h7.2v-2.3H2.9l5.6-9.7l1.6,0.9h0.1
			c0.1,0,0.2-0.1,0.2-0.2V9.9C10.4,9.9,10.3,9.8,10.2,9.8z"/>
		<path d="M30,25.4l-3.6-6.2l-1.9,1.1l2.6,4.5H15.8V23c0-0.1-0.1-0.2-0.2-0.2h-0.1l-5,3c-0.1,0.1-0.1,0.2,0,0.3l5.1,2.9h0.1
			c0.1,0,0.2-0.1,0.2-0.2v-1.8h13.2L30,25.4z"/>
	</g>
</g>
</svg>
