<?xml version="1.0" encoding="utf-8"?>
<!-- Generator: Adobe Illustrator 24.2.3, SVG Export Plug-In . SVG Version: 6.00 Build 0)  -->
<svg version="1.1" id="Layer_1" xmlns="http://www.w3.org/2000/svg" xmlns:xlink="http://www.w3.org/1999/xlink" x="0px" y="0px"
	 viewBox="0 0 30 30" style="enable-background:new 0 0 30 30;" xml:space="preserve">
<g>
	<path d="M15,0C6.7,0,0,6.7,0,15s6.8,15,15,15c8.3,0,15-6.8,15-15S23.3,0,15,0z M15,27.6C8,27.6,2.4,22,2.4,15S8,2.4,15,2.4
		S27.6,8,27.6,15S22,27.6,15,27.6z"/>
	<polygon points="18,17.5 12,8.9 9.5,8.9 9.5,21.1 12,21.1 12,12.5 18,21.1 20.5,21.1 20.5,8.9 18,8.9 	"/>
</g>
</svg>
