<svg width="63" height="25" viewBox="0 0 63 25" fill="none" xmlns="http://www.w3.org/2000/svg">
<g clip-path="url(#clip0_1_17427)">
<path d="M23.285 7.1626H19.5176V24.1376H23.285V7.1626Z" fill="#010100"/>
<path d="M61.7024 9.40015C61.3118 8.76265 60.7952 8.25015 60.1526 7.86265C59.4974 7.47515 58.7666 7.17515 57.9476 6.98765C57.1286 6.80015 56.297 6.71265 55.4276 6.71265C54.4322 6.71265 53.4872 6.80015 52.5926 6.98765C51.698 7.17515 50.8916 7.48765 50.1608 7.92515C49.43 8.36265 48.8504 8.95015 48.4094 9.68765C47.9684 10.4251 47.7164 11.3126 47.6534 12.3626H51.4208C51.509 11.4626 51.887 10.7876 52.5422 10.3376C53.21 9.88765 54.092 9.66265 55.1882 9.66265C55.6292 9.66265 56.0576 9.70015 56.4608 9.76265C56.864 9.82515 57.242 9.93765 57.5822 10.1126C57.9224 10.2751 58.1996 10.5126 58.4138 10.8126C58.628 11.1251 58.7288 11.5001 58.7288 11.9626C58.7288 12.7501 58.4516 13.2751 57.9224 13.5251C57.3806 13.7751 56.4986 13.9751 55.2638 14.1376C54.533 14.2251 53.9786 14.3001 53.6132 14.3626C52.6682 14.4751 51.824 14.6126 51.0806 14.7876C50.3372 14.9626 49.6568 15.2251 49.0394 15.5876C48.422 15.9501 47.9306 16.4626 47.5652 17.1251C47.1998 17.7876 47.0234 18.6251 47.0234 19.6376C47.0234 21.2126 47.5904 22.4376 48.7118 23.3001C49.8332 24.1626 51.2318 24.6001 52.8824 24.6001C53.966 24.6001 55.0496 24.4251 56.1206 24.0751C57.053 23.7751 57.8468 23.3376 58.502 22.7876V24.1501H59.7746H62.2694V20.3751V14.2501V11.6251C62.282 10.7751 62.0804 10.0251 61.7024 9.40015ZM58.1114 19.8876C57.8468 20.2876 57.494 20.6251 57.0656 20.8876C56.6372 21.1501 56.171 21.3376 55.6796 21.4626C55.1882 21.5876 54.7094 21.6376 54.2684 21.6376C53.9156 21.6376 53.5376 21.6001 53.1218 21.5251C52.7186 21.4501 52.328 21.3251 51.9752 21.1626C51.6224 21.0001 51.3326 20.7751 51.1184 20.4876C50.9042 20.2001 50.7908 19.8626 50.7908 19.4751C50.7908 18.5751 51.068 17.9251 51.6224 17.5001C52.1768 17.0876 52.9202 16.8001 53.8778 16.6501C54.2306 16.5876 54.722 16.5126 55.3394 16.4501C56.0828 16.3626 56.7128 16.2626 57.2042 16.1501C57.6956 16.0376 58.1366 15.8626 58.5146 15.6251V18.4126C58.502 18.9876 58.376 19.4751 58.1114 19.8876Z" fill="#010100"/>
<path d="M20.2733 0.412598H16.5059V4.1501H20.2733V0.412598Z" fill="#010100"/>
<path d="M26.3084 0.412598H22.541V4.1501H26.3084V0.412598Z" fill="#010100"/>
<path d="M0.71875 0.412598H4.48615V9.4001H4.54915C5.04055 8.6126 5.73355 7.9626 6.65335 7.4626C7.57315 6.9626 8.58115 6.7126 9.67735 6.7126C11.58 6.7126 13.0542 7.2126 14.1252 8.2001C15.1962 9.2001 15.7254 10.6251 15.7254 12.4876V24.1376H11.9706V13.4626C11.9454 12.1501 11.6682 11.1876 11.1264 10.5751C10.5846 9.9626 9.75295 9.6501 8.63155 9.6501C7.39675 9.6501 6.40135 10.0751 5.63275 10.9251C4.87675 11.7751 4.48615 12.8376 4.48615 14.1126V24.1251H0.71875V0.412598Z" fill="#010100"/>
<path d="M43.6219 24.1376H40.0435V21.8376H39.9805C39.5143 22.7626 38.8087 23.4501 37.8511 23.9001C36.8935 24.3626 35.8351 24.5876 34.6885 24.5876C32.1055 24.5876 30.1273 23.7501 28.7539 22.0626C27.3805 20.3751 26.6875 18.2001 26.6875 15.5251C26.6875 14.0376 26.8891 12.7376 27.3049 11.6126C27.7081 10.5001 28.2625 9.5751 28.9555 8.8376C29.6485 8.1001 30.4423 7.5626 31.3243 7.2126C32.2063 6.8626 33.1261 6.6876 34.1089 6.6876C35.2807 6.6876 36.3769 6.9126 37.4227 7.3626C38.4559 7.8126 39.2497 8.4751 39.8041 9.3501H39.8671V0.412598H43.6345V24.1376H43.6219ZM31.6645 19.9376C32.4709 21.0751 33.6427 21.6501 35.1925 21.6501C36.0115 21.6501 36.7171 21.4751 37.3219 21.1376C37.9267 20.8001 38.4307 20.3501 38.8213 19.7751C39.2245 19.2001 39.5143 18.5626 39.7033 17.8501C39.8923 17.1376 39.9805 16.4001 39.9805 15.6376C39.9805 13.7751 39.5521 12.3126 38.7079 11.2501C37.8637 10.1876 36.7045 9.6626 35.2555 9.6626C34.4113 9.6626 33.6805 9.8376 33.0505 10.1751C32.4205 10.5126 31.9165 10.9751 31.5511 11.5751C31.1731 12.1626 30.8959 12.8251 30.7195 13.5626C30.5431 14.3001 30.4549 15.0501 30.4549 15.8376C30.4549 17.4251 30.8581 18.8001 31.6645 19.9376Z" fill="#010100"/>
</g>
<defs>
<clipPath id="clip0_1_17427">
<rect width="63" height="25" fill="white"/>
</clipPath>
</defs>
</svg>
